<svg width="213" height="24" viewBox="0 0 213 24" fill="none" xmlns="http://www.w3.org/2000/svg">
<path d="M3.896 0.599998H7.288C8.78133 0.599998 10.04 0.823999 11.064 1.272C12.1093 1.72 12.8987 2.34933 13.432 3.16C13.9653 3.94933 14.232 4.87733 14.232 5.944C14.232 6.84 14.0613 7.62933 13.72 8.312C13.3787 8.97333 12.9413 9.51733 12.408 9.944C11.8747 10.3493 11.3093 10.6373 10.712 10.808C11.8427 10.9787 12.8133 11.352 13.624 11.928C14.456 12.504 15.0853 13.2293 15.512 14.104C15.96 14.9573 16.184 15.9173 16.184 16.984C16.184 18.1787 15.896 19.2347 15.32 20.152C14.744 21.048 13.8907 21.752 12.76 22.264C11.6507 22.7547 10.3067 23 8.728 23H5.176C5.176 23 5.176 22.904 5.176 22.712C5.19733 22.52 5.208 22.328 5.208 22.136C5.208 21.944 5.208 21.848 5.208 21.848H8.6C9.70933 21.848 10.648 21.656 11.416 21.272C12.184 20.8667 12.7707 20.28 13.176 19.512C13.5813 18.744 13.784 17.8267 13.784 16.76C13.784 15.5653 13.5493 14.5947 13.08 13.848C12.632 13.1013 12.0453 12.536 11.32 12.152C10.5947 11.768 9.80533 11.512 8.952 11.384C8.12 11.2347 7.32 11.16 6.552 11.16V10.872C7.04267 10.872 7.58667 10.8187 8.184 10.712C8.78133 10.6053 9.35733 10.392 9.912 10.072C10.4667 9.752 10.9253 9.28267 11.288 8.664C11.6507 8.024 11.832 7.192 11.832 6.168C11.832 5.208 11.6507 4.38667 11.288 3.704C10.9467 3.02133 10.424 2.50933 9.72 2.168C9.03733 1.80533 8.184 1.624 7.16 1.624H4.216C4.216 1.60267 4.184 1.51733 4.12 1.368C4.07733 1.19733 4.024 1.02667 3.96 0.855999C3.91733 0.685332 3.896 0.599998 3.896 0.599998ZM5.464 0.599998V23H3.384V0.599998H5.464ZM3.48 20.664V23H0.92L0.952 22.68C0.994667 22.68 1.05867 22.68 1.144 22.68C1.25067 22.68 1.31467 22.68 1.336 22.68C1.89067 22.68 2.37067 22.488 2.776 22.104C3.18133 21.6987 3.384 21.2187 3.384 20.664H3.48ZM3.48 2.936H3.384C3.384 2.38133 3.18133 1.912 2.776 1.528C2.37067 1.12267 1.89067 0.919998 1.336 0.919998C1.31467 0.919998 1.25067 0.919998 1.144 0.919998C1.05867 0.919998 0.994667 0.919998 0.952 0.919998L0.92 0.599998H3.48V2.936ZM23.5495 3.8V23H21.5015V3.8H23.5495ZM32.1575 22.008L32.0935 23H23.4855V22.008H32.1575ZM30.6535 12.92V13.88H23.4855V12.92H30.6535ZM32.1255 3.8V4.792H23.4855V3.8H32.1255ZM33.9495 18.424L32.1895 23H27.3255L28.4135 22.008C29.4802 22.008 30.3335 21.8587 30.9735 21.56C31.6348 21.24 32.1682 20.8133 32.5735 20.28C32.9788 19.7253 33.3308 19.1067 33.6295 18.424H33.9495ZM30.6535 13.816V15.64H30.3015V15.224C30.3015 14.8613 30.1948 14.552 29.9815 14.296C29.7682 14.0187 29.4375 13.88 28.9895 13.88V13.816H30.6535ZM30.6535 11.16V12.984H28.9895V12.92C29.4375 12.92 29.7682 12.792 29.9815 12.536C30.1948 12.2587 30.3015 11.9387 30.3015 11.576V11.16H30.6535ZM32.1255 4.696V6.904H31.7735V6.424C31.7735 5.976 31.6242 5.592 31.3255 5.272C31.0482 4.952 30.6642 4.792 30.1735 4.792V4.696H32.1255ZM32.1255 3.288V4.12L28.4775 3.8C29.1388 3.8 29.8428 3.74667 30.5895 3.64C31.3362 3.512 31.8482 3.39467 32.1255 3.288ZM21.5655 20.952L21.9815 23H19.1975V22.68C19.1975 22.68 19.2722 22.68 19.4215 22.68C19.5708 22.68 19.6455 22.68 19.6455 22.68C20.1788 22.68 20.6162 22.5093 20.9575 22.168C21.2988 21.8267 21.4802 21.4213 21.5015 20.952H21.5655ZM21.5655 5.816H21.5015C21.4802 5.32533 21.2988 4.92 20.9575 4.6C20.6162 4.28 20.1788 4.12 19.6455 4.12C19.6455 4.12 19.5708 4.12 19.4215 4.12C19.2722 4.12 19.1975 4.12 19.1975 4.12V3.8H21.9815L21.5655 5.816ZM40.7058 3.8V23H38.6578V3.8H40.7058ZM49.3138 22.008L49.2498 23H40.6418V22.008H49.3138ZM51.1058 18.424L49.3458 23H44.4818L45.5698 22.008C46.6364 22.008 47.4898 21.8587 48.1298 21.56C48.7911 21.24 49.3244 20.8133 49.7298 20.28C50.1351 19.7253 50.4871 19.1067 50.7858 18.424H51.1058ZM38.7218 20.952L39.1378 23H36.3538V22.68C36.3538 22.68 36.4284 22.68 36.5778 22.68C36.7271 22.68 36.8018 22.68 36.8018 22.68C37.3351 22.68 37.7724 22.5093 38.1138 22.168C38.4551 21.8267 38.6364 21.4213 38.6578 20.952H38.7218ZM40.6098 5.848V3.8H42.9778V4.12C42.9778 4.12 42.9138 4.12 42.7858 4.12C42.6578 4.12 42.5938 4.12 42.5938 4.12C42.0818 4.12 41.6338 4.29067 41.2498 4.632C40.8871 4.952 40.7058 5.35733 40.7058 5.848H40.6098ZM38.7218 5.848H38.6578C38.6364 5.35733 38.4444 4.952 38.0818 4.632C37.7191 4.29067 37.2711 4.12 36.7378 4.12C36.7378 4.12 36.6738 4.12 36.5458 4.12C36.4178 4.12 36.3538 4.12 36.3538 4.12V3.8H38.7218V5.848ZM57.0808 3.8V23H55.0328V3.8H57.0808ZM65.6888 22.008L65.6248 23H57.0168V22.008H65.6888ZM67.4808 18.424L65.7208 23H60.8568L61.9448 22.008C63.0114 22.008 63.8648 21.8587 64.5048 21.56C65.1661 21.24 65.6994 20.8133 66.1048 20.28C66.5101 19.7253 66.8621 19.1067 67.1608 18.424H67.4808ZM55.0968 20.952L55.5128 23H52.7288V22.68C52.7288 22.68 52.8034 22.68 52.9528 22.68C53.1021 22.68 53.1768 22.68 53.1768 22.68C53.7101 22.68 54.1474 22.5093 54.4888 22.168C54.8301 21.8267 55.0114 21.4213 55.0328 20.952H55.0968ZM56.9848 5.848V3.8H59.3528V4.12C59.3528 4.12 59.2888 4.12 59.1608 4.12C59.0328 4.12 58.9688 4.12 58.9688 4.12C58.4568 4.12 58.0088 4.29067 57.6248 4.632C57.2621 4.952 57.0808 5.35733 57.0808 5.848H56.9848ZM55.0968 5.848H55.0328C55.0114 5.35733 54.8194 4.952 54.4568 4.632C54.0941 4.29067 53.6461 4.12 53.1128 4.12C53.1128 4.12 53.0488 4.12 52.9208 4.12C52.7928 4.12 52.7288 4.12 52.7288 4.12V3.8H55.0968V5.848ZM78.877 3.352L87.677 22.808H85.149L78.333 6.2L78.877 3.352ZM72.701 20.664C72.4663 21.304 72.4983 21.8053 72.797 22.168C73.0957 22.5093 73.437 22.68 73.821 22.68H74.077V23H67.965V22.68C67.965 22.68 68.0077 22.68 68.093 22.68C68.1783 22.68 68.221 22.68 68.221 22.68C68.669 22.68 69.1277 22.5307 69.597 22.232C70.0663 21.912 70.4717 21.3893 70.813 20.664H72.701ZM78.877 3.352L79.101 5.56L71.773 22.904H69.757L77.341 6.648C77.341 6.648 77.3943 6.52 77.501 6.264C77.629 6.008 77.7677 5.69867 77.917 5.336C78.0877 4.952 78.237 4.57867 78.365 4.216C78.493 3.85333 78.5677 3.56533 78.589 3.352H78.877ZM82.653 15.544V16.504H74.173V15.544H82.653ZM84.285 20.664H86.717C87.037 21.3893 87.4317 21.912 87.901 22.232C88.3703 22.5307 88.8183 22.68 89.245 22.68C89.245 22.68 89.2877 22.68 89.373 22.68C89.4583 22.68 89.501 22.68 89.501 22.68V23H82.941V22.68H83.197C83.5597 22.68 83.8903 22.5093 84.189 22.168C84.4877 21.8053 84.5197 21.304 84.285 20.664ZM101.376 0.119999L119.968 19.96L120.256 23.448L101.664 3.64L101.376 0.119999ZM101.44 20.728V23H98.7838V22.68C98.7838 22.68 98.8798 22.68 99.0718 22.68C99.2638 22.68 99.3704 22.68 99.3918 22.68C99.9251 22.68 100.384 22.488 100.768 22.104C101.152 21.72 101.344 21.2613 101.344 20.728H101.44ZM102.816 20.728C102.816 21.2613 103.008 21.72 103.392 22.104C103.776 22.488 104.234 22.68 104.768 22.68C104.789 22.68 104.896 22.68 105.088 22.68C105.28 22.68 105.376 22.68 105.376 22.68V23H102.72V20.728H102.816ZM101.376 0.119999L102.784 1.912L102.816 23H101.344V4.12C101.344 3.032 101.29 2.09333 101.184 1.304C101.098 0.514666 101.056 0.119999 101.056 0.119999H101.376ZM120.256 0.599998V19.352C120.256 20.0347 120.277 20.696 120.32 21.336C120.362 21.9547 120.405 22.4667 120.448 22.872C120.512 23.256 120.544 23.448 120.544 23.448H120.256L118.816 21.752V0.599998H120.256ZM122.816 0.599998V0.919998C122.816 0.919998 122.72 0.919998 122.528 0.919998C122.336 0.919998 122.24 0.919998 122.24 0.919998C121.706 0.919998 121.248 1.112 120.864 1.496C120.48 1.85867 120.277 2.31733 120.256 2.872H120.16V0.599998H122.816ZM116.224 0.599998H118.88V2.872H118.816C118.794 2.31733 118.592 1.85867 118.208 1.496C117.845 1.112 117.386 0.919998 116.832 0.919998C116.832 0.919998 116.736 0.919998 116.544 0.919998C116.352 0.919998 116.245 0.919998 116.224 0.919998V0.599998ZM134.533 3.352L143.333 22.808H140.805L133.989 6.2L134.533 3.352ZM128.357 20.664C128.123 21.304 128.155 21.8053 128.453 22.168C128.752 22.5093 129.093 22.68 129.477 22.68H129.733V23H123.621V22.68C123.621 22.68 123.664 22.68 123.749 22.68C123.835 22.68 123.877 22.68 123.877 22.68C124.325 22.68 124.784 22.5307 125.253 22.232C125.723 21.912 126.128 21.3893 126.469 20.664H128.357ZM134.533 3.352L134.757 5.56L127.429 22.904H125.413L132.997 6.648C132.997 6.648 133.051 6.52 133.157 6.264C133.285 6.008 133.424 5.69867 133.573 5.336C133.744 4.952 133.893 4.57867 134.021 4.216C134.149 3.85333 134.224 3.56533 134.245 3.352H134.533ZM138.309 15.544V16.504H129.829V15.544H138.309ZM139.941 20.664H142.373C142.693 21.3893 143.088 21.912 143.557 22.232C144.027 22.5307 144.475 22.68 144.901 22.68C144.901 22.68 144.944 22.68 145.029 22.68C145.115 22.68 145.157 22.68 145.157 22.68V23H138.597V22.68H138.853C139.216 22.68 139.547 22.5093 139.845 22.168C140.144 21.8053 140.176 21.304 139.941 20.664ZM150.696 3.8H154.248C155.741 3.8 157.032 4.024 158.12 4.472C159.208 4.89867 160.051 5.528 160.648 6.36C161.245 7.17067 161.544 8.14133 161.544 9.272C161.544 10.488 161.267 11.5333 160.712 12.408C160.179 13.2613 159.464 13.9227 158.568 14.392C157.672 14.84 156.68 15.064 155.592 15.064C154.504 15.0427 153.416 14.7653 152.328 14.232V13.912C152.328 13.912 152.499 13.944 152.84 14.008C153.203 14.072 153.661 14.104 154.216 14.104C154.771 14.0827 155.357 13.9867 155.976 13.816C156.595 13.624 157.171 13.2827 157.704 12.792C158.259 12.3013 158.696 11.5973 159.016 10.68C159.101 10.4453 159.155 10.168 159.176 9.848C159.219 9.528 159.24 9.22933 159.24 8.952C159.24 7.65067 158.792 6.62667 157.896 5.88C157 5.13333 155.763 4.76 154.184 4.76H151.048C151.048 4.76 151.016 4.68533 150.952 4.536C150.909 4.36533 150.856 4.20533 150.792 4.056C150.728 3.88533 150.696 3.8 150.696 3.8ZM151.112 3.8V23H149.064V3.8H151.112ZM149.128 20.952L149.544 23H146.76V22.68C146.76 22.68 146.835 22.68 146.984 22.68C147.133 22.68 147.208 22.68 147.208 22.68C147.72 22.68 148.147 22.5093 148.488 22.168C148.851 21.8267 149.043 21.4213 149.064 20.952H149.128ZM149.128 5.816H149.064C149.043 5.32533 148.851 4.92 148.488 4.6C148.147 4.28 147.72 4.12 147.208 4.12C147.208 4.12 147.133 4.12 146.984 4.12C146.835 4.12 146.76 4.12 146.76 4.12V3.8H149.544L149.128 5.816ZM151.016 20.952H151.08C151.101 21.4213 151.283 21.8267 151.624 22.168C151.987 22.5093 152.424 22.68 152.936 22.68C152.957 22.68 153.032 22.68 153.16 22.68C153.309 22.68 153.384 22.68 153.384 22.68V23H150.6L151.016 20.952ZM175.228 3.352C176.721 3.352 178.118 3.59733 179.42 4.088C180.742 4.55733 181.894 5.24 182.876 6.136C183.878 7.032 184.657 8.09867 185.212 9.336C185.766 10.552 186.044 11.9067 186.044 13.4C186.044 14.8933 185.766 16.2587 185.212 17.496C184.657 18.712 183.878 19.768 182.876 20.664C181.894 21.56 180.742 22.2533 179.42 22.744C178.118 23.2133 176.721 23.448 175.228 23.448C173.734 23.448 172.337 23.2133 171.036 22.744C169.734 22.2533 168.582 21.56 167.58 20.664C166.598 19.768 165.83 18.712 165.276 17.496C164.721 16.2587 164.444 14.8933 164.444 13.4C164.444 11.9067 164.721 10.552 165.276 9.336C165.83 8.09867 166.598 7.032 167.58 6.136C168.582 5.24 169.734 4.55733 171.036 4.088C172.337 3.59733 173.734 3.352 175.228 3.352ZM175.228 22.488C176.806 22.488 178.236 22.104 179.516 21.336C180.796 20.568 181.809 19.5013 182.556 18.136C183.302 16.7707 183.676 15.192 183.676 13.4C183.676 11.5867 183.302 10.008 182.556 8.664C181.809 7.29867 180.796 6.232 179.516 5.464C178.236 4.696 176.806 4.312 175.228 4.312C173.67 4.312 172.252 4.696 170.972 5.464C169.692 6.232 168.678 7.29867 167.932 8.664C167.185 10.008 166.812 11.5867 166.812 13.4C166.812 15.192 167.185 16.7707 167.932 18.136C168.678 19.5013 169.692 20.568 170.972 21.336C172.252 22.104 173.67 22.488 175.228 22.488ZM193.268 3.8V23H191.22V3.8H193.268ZM201.876 22.008L201.812 23H193.204V22.008H201.876ZM203.668 18.424L201.908 23H197.044L198.132 22.008C199.199 22.008 200.052 21.8587 200.692 21.56C201.354 21.24 201.887 20.8133 202.292 20.28C202.698 19.7253 203.05 19.1067 203.348 18.424H203.668ZM191.284 20.952L191.7 23H188.916V22.68C188.916 22.68 188.991 22.68 189.14 22.68C189.29 22.68 189.364 22.68 189.364 22.68C189.898 22.68 190.335 22.5093 190.676 22.168C191.018 21.8267 191.199 21.4213 191.22 20.952H191.284ZM193.172 5.848V3.8H195.54V4.12C195.54 4.12 195.476 4.12 195.348 4.12C195.22 4.12 195.156 4.12 195.156 4.12C194.644 4.12 194.196 4.29067 193.812 4.632C193.45 4.952 193.268 5.35733 193.268 5.848H193.172ZM191.284 5.848H191.22C191.199 5.35733 191.007 4.952 190.644 4.632C190.282 4.29067 189.834 4.12 189.3 4.12C189.3 4.12 189.236 4.12 189.108 4.12C188.98 4.12 188.916 4.12 188.916 4.12V3.8H191.284V5.848ZM209.931 3.8V23H207.915V3.8H209.931ZM208.011 20.952V23H205.291V22.68C205.291 22.68 205.366 22.68 205.515 22.68C205.665 22.68 205.739 22.68 205.739 22.68C206.337 22.68 206.838 22.5093 207.243 22.168C207.67 21.8267 207.894 21.4213 207.915 20.952H208.011ZM209.835 20.952H209.931C209.953 21.4213 210.166 21.8267 210.571 22.168C210.998 22.5093 211.51 22.68 212.107 22.68C212.107 22.68 212.171 22.68 212.299 22.68C212.449 22.68 212.523 22.68 212.523 22.68L212.555 23H209.835V20.952ZM209.835 5.848V3.8H212.555L212.523 4.12C212.523 4.12 212.449 4.12 212.299 4.12C212.171 4.12 212.107 4.12 212.107 4.12C211.51 4.12 210.998 4.29067 210.571 4.632C210.166 4.952 209.953 5.35733 209.931 5.848H209.835ZM208.011 5.848H207.915C207.894 5.35733 207.67 4.952 207.243 4.632C206.838 4.29067 206.337 4.12 205.739 4.12C205.718 4.12 205.633 4.12 205.483 4.12C205.355 4.12 205.291 4.12 205.291 4.12V3.8H208.011V5.848Z" fill="#67480A"/>
</svg>
