<svg width="25" height="25" viewBox="0 0 25 25" fill="none" xmlns="http://www.w3.org/2000/svg">
<path d="M22.2604 17.3058V20.3058C22.2616 20.5843 22.2045 20.86 22.0929 21.1152C21.9814 21.3704 21.8177 21.5994 21.6125 21.7877C21.4073 21.976 21.165 22.1193 20.9012 22.2085C20.6374 22.2978 20.3578 22.3309 20.0804 22.3058C17.0033 21.9715 14.0474 20.92 11.4504 19.2358C9.03426 17.7005 6.98577 15.652 5.45043 13.2358C3.76041 10.627 2.70867 7.65683 2.38043 4.56584C2.35544 4.28931 2.38831 4.0106 2.47693 3.74746C2.56556 3.48433 2.708 3.24253 2.8952 3.03746C3.08239 2.83239 3.31024 2.66855 3.56422 2.55636C3.81821 2.44417 4.09277 2.3861 4.37043 2.38584H7.37043C7.85574 2.38106 8.32622 2.55292 8.69419 2.86937C9.06216 3.18583 9.30251 3.62529 9.37043 4.10584C9.49705 5.06591 9.73188 6.00857 10.0704 6.91584C10.205 7.27376 10.2341 7.66275 10.1543 8.03672C10.0746 8.41068 9.88929 8.75395 9.62043 9.02584L8.35043 10.2958C9.77399 12.7994 11.8469 14.8723 14.3504 16.2958L15.6204 15.0258C15.8923 14.757 16.2356 14.5717 16.6096 14.4919C16.9835 14.4122 17.3725 14.4413 17.7304 14.5758C18.6377 14.9144 19.5804 15.1492 20.5404 15.2758C21.0262 15.3444 21.4698 15.589 21.787 15.9633C22.1041 16.3376 22.2726 16.8154 22.2604 17.3058Z" stroke="black" stroke-width="2" stroke-linecap="round" stroke-linejoin="round"/>
</svg>
