<svg width="31" height="32" viewBox="0 0 31 32" fill="none" xmlns="http://www.w3.org/2000/svg">
<g clip-path="url(#clip0_22_232)">
<path d="M11.8387 29.1068C12.5409 29.1068 13.1101 28.5288 13.1101 27.8158C13.1101 27.1028 12.5409 26.5247 11.8387 26.5247C11.1365 26.5247 10.5673 27.1028 10.5673 27.8158C10.5673 28.5288 11.1365 29.1068 11.8387 29.1068Z" stroke="#1F1F1F" stroke-width="2" stroke-linecap="round" stroke-linejoin="round"/>
<path d="M25.8245 29.1068C26.5267 29.1068 27.096 28.5288 27.096 27.8158C27.096 27.1028 26.5267 26.5247 25.8245 26.5247C25.1223 26.5247 24.5531 27.1028 24.5531 27.8158C24.5531 28.5288 25.1223 29.1068 25.8245 29.1068Z" stroke="#1F1F1F" stroke-width="2" stroke-linecap="round" stroke-linejoin="round"/>
<path d="M1.66724 1.99493H6.753L10.1605 19.282C10.2767 19.8764 10.5952 20.4103 11.0601 20.7903C11.5249 21.1703 12.1066 21.3722 12.7033 21.3606H25.0617C25.6584 21.3722 26.2401 21.1703 26.705 20.7903C27.1699 20.4103 27.4883 19.8764 27.6046 19.282L29.6389 8.45015H8.02444" stroke="#1F1F1F" stroke-width="2" stroke-linecap="round" stroke-linejoin="round"/>
</g>
<defs>
<clipPath id="clip0_22_232">
<rect width="30.5146" height="30.985" fill="white" transform="translate(0.395752 0.703888)"/>
</clipPath>
</defs>
</svg>
