<svg width="14" height="16" viewBox="0 0 14 16" fill="none" xmlns="http://www.w3.org/2000/svg">
<path fill-rule="evenodd" clip-rule="evenodd" d="M4.92425 4.2981C4.92425 3.14588 5.81802 2.27118 6.84857 2.27118C7.87911 2.27118 8.77288 3.14588 8.77288 4.2981C8.77288 5.45032 7.87911 6.32502 6.84857 6.32502C5.81802 6.32502 4.92425 5.45032 4.92425 4.2981ZM6.84857 0.271179C4.649 0.271179 2.92425 2.10688 2.92425 4.2981C2.92425 6.48932 4.649 8.32502 6.84857 8.32502C9.04813 8.32502 10.7729 6.48932 10.7729 4.2981C10.7729 2.10688 9.04813 0.271179 6.84857 0.271179ZM3.92431 9.35193C2.87218 9.35193 1.8704 9.78488 1.13732 10.5437C0.40537 11.3013 0 12.3218 0 13.3788V14.8923C0 15.4446 0.447715 15.8923 1 15.8923C1.55228 15.8923 2 15.4446 2 14.8923V13.3788C2 12.8304 2.21082 12.311 2.5757 11.9333C2.93945 11.5568 3.4253 11.3519 3.92431 11.3519H9.77294C10.272 11.3519 10.7578 11.5568 11.1216 11.9333C11.4864 12.311 11.6973 12.8304 11.6973 13.3788V14.8923C11.6973 15.4446 12.145 15.8923 12.6973 15.8923C13.2495 15.8923 13.6973 15.4446 13.6973 14.8923V13.3788C13.6973 12.3218 13.2919 11.3013 12.5599 10.5437C11.8269 9.78488 10.8251 9.35193 9.77294 9.35193H3.92431Z" fill="#1F1F1F"/>
</svg>
